<!-- Updated favicon to force cache refresh -->
<svg width="32" height="32" viewBox="0 0 32 32" fill="none" xmlns="http://www.w3.org/2000/svg">
  <!-- Dark background circle -->
  <circle cx="16" cy="16" r="15" fill="#0d0d0d" stroke="#ec4899" stroke-width="1"/>
  
  <!-- R Letter - simplified and bold -->
  <g fill="#ec4899">
    <rect x="6" y="8" width="2" height="8"/>
    <rect x="6" y="8" width="4" height="2"/>
    <rect x="6" y="12" width="3" height="2"/>
    <rect x="8" y="14" width="2" height="2"/>
    <rect x="10" y="10" width="2" height="2"/>
  </g>
  
  <!-- D Letter - simplified and bold -->
  <g fill="#ec4899">
    <rect x="18" y="8" width="2" height="8"/>
    <rect x="18" y="8" width="4" height="2"/>
    <rect x="18" y="14" width="4" height="2"/>
    <rect x="20" y="10" width="2" height="4"/>
  </g>
  
  <!-- Tech accent dots -->
  <g fill="#06b6d4">
    <circle cx="8" cy="20" r="1"/>
    <circle cx="24" cy="20" r="1"/>
    <circle cx="16" cy="24" r="1"/>
  </g>
  
  <!-- Financial growth line -->
  <path d="M4 26 L8 24 L12 25 L16 22 L20 23 L24 21 L28 20" stroke="#8b5cf6" stroke-width="1.5" fill="none"/>
</svg> 